<?xml version="1.0" encoding="UTF-8" standalone="no"?>
<svg width="429px" height="451px" viewBox="0 0 429 451" version="1.1" xmlns="http://www.w3.org/2000/svg" xmlns:xlink="http://www.w3.org/1999/xlink">
    <!-- Generator: Sketch 3.8.2 (29753) - http://www.bohemiancoding.com/sketch -->
    <title>J</title>
    <desc>Created with Sketch.</desc>
    <defs></defs>
    <g id="Page-1" stroke="none" stroke-width="1" fill="none" fill-rule="evenodd" opacity="0.08">
        <g id="index" transform="translate(-447.000000, -145.000000)" fill="#FFFFFF">
            <path d="M875.25007,170.999938 C875.25007,153.749935 861.250068,145.749933 848.750066,145.749933 C829.500062,145.749933 813.25006,163.499936 824.750062,185.49994 C838.750064,176.999939 847.250065,184.99994 847.250065,192.999941 C847.250065,198.999942 843.250065,205.499943 831.250063,205.499943 C771.750053,205.499943 711.250043,155.499935 647.750033,155.499935 C593.750024,155.499935 555.250018,191.999941 555.250018,238.499949 C555.250018,282.499956 592.250024,310.49996 629.25003,310.49996 C687.750039,310.49996 725.750045,236.999948 667.250036,210.499944 C656.750034,223.999946 642.750032,230.499947 629.25003,230.499947 C613.750027,230.499947 596.250024,222.499946 596.250024,198.999942 C596.250024,172.499938 620.500028,157.249935 647.750033,157.249935 C679.750038,157.249935 711.000043,169.999937 741.750048,182.499939 C772.000053,194.999941 804.000058,208.499944 836.750064,207.249943 L836.750064,207.749944 C797.250057,209.749944 716.000044,225.999947 705.750042,291.999957 L679.750038,461.999985 C666.500036,548.499999 627.250029,594.000007 564.750019,594.000007 C497.750008,594.000007 468.250003,552.5 468.250003,495.999991 C468.250003,443.499982 501.000009,403.749976 543.250016,403.749976 C564.250019,403.749976 583.250022,415.999978 583.250022,442.249982 C583.250022,468.499986 564.250019,488.49999 540.250015,488.99999 C531.250014,519.499995 555.750018,542.499998 584.250022,542.499998 C623.750029,542.499998 649.250033,514.499994 649.250033,480.999988 C649.250033,430.49998 597.500024,401.999975 548.500016,401.999975 C493.000007,401.999975 447.75,438.499981 447.75,496.999991 C447.75,562.500002 493.000007,595.750007 570.50002,595.750007 C629.50003,595.750007 761.750051,576.750004 781.250055,448.999983 L807.750059,276.999955 C821.500061,187.49994 875.25007,206.249943 875.25007,170.999938 L875.25007,170.999938 Z" id="J"></path>
        </g>
    </g>
</svg>
